<?xml version="1.0" encoding="UTF-8"?>
<!DOCTYPE svg PUBLIC "-//W3C//DTD SVG 1.1//EN" "http://www.w3.org/Graphics/SVG/1.1/DTD/svg11.dtd">
<svg xmlns="http://www.w3.org/2000/svg" version="1.1" width="195px" height="227px" style="shape-rendering:geometricPrecision; text-rendering:geometricPrecision; image-rendering:optimizeQuality; fill-rule:evenodd; clip-rule:evenodd" xmlns:xlink="http://www.w3.org/1999/xlink">
<g><path style="opacity:1" fill="#0a0a0a" d="M 66.5,-0.5 C 69.8333,-0.5 73.1667,-0.5 76.5,-0.5C 81.858,0.573216 86.858,2.73988 91.5,6C 97.3365,11.0042 103.003,16.1708 108.5,21.5C 108.5,23.5 109.5,24.5 111.5,24.5C 119.852,31.1872 127.519,38.5205 134.5,46.5C 130.021,49.919 125.688,53.5857 121.5,57.5C 120.833,57.5 120.167,57.5 119.5,57.5C 119.5,56.8333 119.167,56.5 118.5,56.5C 115.88,54.4206 112.88,53.0873 109.5,52.5C 107.712,53.2826 106.712,54.6159 106.5,56.5C 106.167,56.5 105.833,56.5 105.5,56.5C 104.833,56.8333 104.167,57.1667 103.5,57.5C 95.2394,49.4062 86.2394,42.2395 76.5,36C 66.548,35.9754 57.8813,39.3088 50.5,46C 52.2331,48.0757 53.5665,50.4091 54.5,53C 54.0496,54.2853 53.3829,55.452 52.5,56.5C 57.1541,58.6283 57.8208,61.795 54.5,66C 50.9251,65.7383 47.4251,65.905 44,66.5C 43.0715,70.2441 43.5715,73.7441 45.5,77C 46.6086,77.6377 47.7753,78.1377 49,78.5C 57.7011,75.3212 66.5344,72.6545 75.5,70.5C 84.5047,69.0659 93.5047,67.5659 102.5,66C 104.693,65.1165 106.026,63.9499 106.5,62.5C 106.5,62.8333 106.5,63.1667 106.5,63.5C 106.5,64.8333 107.167,65.5 108.5,65.5C 115.5,65.5 122.5,65.5 129.5,65.5C 133.519,65.6458 137.519,65.9791 141.5,66.5C 150.204,67.7623 158.87,69.0956 167.5,70.5C 174.044,72.77 180.377,75.6033 186.5,79C 189.692,81.0282 192.359,83.5282 194.5,86.5C 194.5,87.5 194.5,88.5 194.5,89.5C 188.998,93.0855 183.331,96.4188 177.5,99.5C 176.833,99.8333 176.167,100.167 175.5,100.5C 175.047,99.5416 174.381,98.7083 173.5,98C 174.899,96.9384 175.899,95.605 176.5,94C 174.907,90.7385 172.907,87.7385 170.5,85C 168.527,84.5045 166.527,84.3379 164.5,84.5C 163.833,84.5 163.167,84.5 162.5,84.5C 161.513,81.9142 159.513,80.5809 156.5,80.5C 156.158,79.6618 155.492,79.3284 154.5,79.5C 155.028,78.1526 155.195,76.8193 155,75.5C 148.802,72.1748 142.135,70.5082 135,70.5C 132.992,70.3068 131.492,70.9735 130.5,72.5C 128.442,74.9965 127.276,74.3298 127,70.5C 124.544,69.1578 122.378,69.4911 120.5,71.5C 119.391,71.5569 118.391,71.8902 117.5,72.5C 117.167,72.5 116.833,72.5 116.5,72.5C 115.824,69.6612 113.991,67.9946 111,67.5C 107.984,69.0167 105.818,71.35 104.5,74.5C 103.817,74.1373 103.15,73.8039 102.5,73.5C 102.167,72.8333 101.833,72.1667 101.5,71.5C 101.5,70.5 101.5,69.5 101.5,68.5C 94.1101,68.8616 88.1101,71.8616 83.5,77.5C 82.2151,79.6589 80.5485,80.3255 78.5,79.5C 77.6879,78.0069 76.3545,77.3402 74.5,77.5C 71.7084,77.8139 69.2084,78.8139 67,80.5C 65.5349,79.6705 64.0349,79.5038 62.5,80C 57.1207,83.712 52.7873,88.3787 49.5,94C 47.0953,94.2812 47.0953,93.6146 49.5,92C 41.2246,89.7159 34.5579,91.8826 29.5,98.5C 27.8958,99.287 27.2291,100.62 27.5,102.5C 27.5,102.833 27.5,103.167 27.5,103.5C 26.8333,103.833 26.1667,104.167 25.5,104.5C 24.5987,105.29 23.9321,106.29 23.5,107.5C 22.6993,109.042 22.366,110.708 22.5,112.5C 20.4352,112.517 18.4352,112.85 16.5,113.5C 10.1501,113.171 4.48348,111.171 -0.5,107.5C -0.5,107.167 -0.5,106.833 -0.5,106.5C 7.8442,98.1415 17.5109,91.4748 28.5,86.5C 28.8333,85.1667 29.1667,83.8333 29.5,82.5C 28.7275,66.5143 28.2275,50.5143 28,34.5C 21.4175,30.3602 14.2508,27.6935 6.5,26.5C 5.83333,25.8333 5.16667,25.1667 4.5,24.5C 15.7737,18.3641 27.4404,13.0307 39.5,8.5C 42.716,8.6545 45.3826,7.6545 47.5,5.5C 53.7955,3.06657 60.1288,1.06657 66.5,-0.5 Z"/></g>
<g><path style="opacity:1" fill="#5f5c5b" d="M 47.5,5.5 C 45.3826,7.6545 42.716,8.6545 39.5,8.5C 41.936,7.12904 44.6027,6.12904 47.5,5.5 Z"/></g>
<g><path style="opacity:1" fill="#94908f" d="M 108.5,21.5 C 109.833,22.1667 110.833,23.1667 111.5,24.5C 109.5,24.5 108.5,23.5 108.5,21.5 Z"/></g>
<g><path style="opacity:1" fill="#a9a5a4" d="M 4.5,24.5 C 5.16667,25.1667 5.83333,25.8333 6.5,26.5C 5.32496,26.719 4.32496,26.3857 3.5,25.5C 3.62358,24.8933 3.95691,24.56 4.5,24.5 Z"/></g>
<g><path style="opacity:1" fill="#f3edf0" d="M 103.5,57.5 C 105.191,60.3805 104.691,61.3805 102,60.5C 98.4146,62.1281 94.5812,62.9615 90.5,63C 85.2646,65.2316 80.2646,67.7316 75.5,70.5C 66.5344,72.6545 57.7011,75.3212 49,78.5C 47.7753,78.1377 46.6086,77.6377 45.5,77C 43.5715,73.7441 43.0715,70.2441 44,66.5C 47.4251,65.905 50.9251,65.7383 54.5,66C 57.8208,61.795 57.1541,58.6283 52.5,56.5C 53.3829,55.452 54.0496,54.2853 54.5,53C 53.5665,50.4091 52.2331,48.0757 50.5,46C 57.8813,39.3088 66.548,35.9754 76.5,36C 86.2394,42.2395 95.2394,49.4062 103.5,57.5 Z"/></g>
<g><path style="opacity:1" fill="#efe9ed" d="M 155.5,49.5 C 148.199,50.1486 141.199,51.9819 134.5,55C 133.304,55.6543 133.304,56.1543 134.5,56.5C 141.841,53.8384 149.174,51.5051 156.5,49.5C 160.785,48.23 165.119,48.23 169.5,49.5C 171.082,53.6827 170.416,57.3494 167.5,60.5C 167.414,59.5041 167.748,58.6708 168.5,58C 160.066,57.6962 151.733,58.5296 143.5,60.5C 150.774,62.8179 158.107,64.8179 165.5,66.5C 167.104,67.287 167.771,68.6203 167.5,70.5C 158.87,69.0956 150.204,67.7623 141.5,66.5C 135.762,61.9249 129.096,59.9249 121.5,60.5C 121.5,59.5 121.5,58.5 121.5,57.5C 125.688,53.5857 130.021,49.919 134.5,46.5C 137.216,44.3867 140.05,42.3867 143,40.5C 143.333,41.1667 143.667,41.8333 144,42.5C 146.382,38.0474 150.215,35.7141 155.5,35.5C 155.5,40.1667 155.5,44.8333 155.5,49.5 Z"/></g>
<g><path style="opacity:1" fill="#6f6870" d="M 155.5,49.5 C 155.833,49.5 156.167,49.5 156.5,49.5C 149.174,51.5051 141.841,53.8384 134.5,56.5C 133.304,56.1543 133.304,55.6543 134.5,55C 141.199,51.9819 148.199,50.1486 155.5,49.5 Z"/></g>
<g><path style="opacity:1" fill="#958395" d="M 80.5,55.5 C 86.3695,55.7072 92.0361,56.8739 97.5,59C 91.8333,59.6667 86.1667,59.6667 80.5,59C 79.3157,57.8545 79.3157,56.6879 80.5,55.5 Z"/></g>
<g><path style="opacity:1" fill="#9f88a0" d="M 118.5,56.5 C 119.167,56.5 119.5,56.8333 119.5,57.5C 120.369,59.717 120.702,62.0504 120.5,64.5C 117.5,64.5 114.5,64.5 111.5,64.5C 114.229,62.1096 116.562,59.443 118.5,56.5 Z"/></g>
<g><path style="opacity:1" fill="#ece7eb" d="M 118.5,56.5 C 116.562,59.443 114.229,62.1096 111.5,64.5C 111.167,64.5 110.833,64.5 110.5,64.5C 110.052,61.3181 108.718,58.6514 106.5,56.5C 106.712,54.6159 107.712,53.2826 109.5,52.5C 112.88,53.0873 115.88,54.4206 118.5,56.5 Z"/></g>
<g><path style="opacity:1" fill="#a992aa" d="M 167.5,60.5 C 166.833,62.5 166.167,64.5 165.5,66.5C 158.107,64.8179 150.774,62.8179 143.5,60.5C 151.733,58.5296 160.066,57.6962 168.5,58C 167.748,58.6708 167.414,59.5041 167.5,60.5 Z"/></g>
<g><path style="opacity:1" fill="#f3eff2" d="M 105.5,56.5 C 105.833,56.5 106.167,56.5 106.5,56.5C 107.014,58.3664 107.68,60.1997 108.5,62C 108.164,63.0299 107.497,63.5299 106.5,63.5C 106.5,63.1667 106.5,62.8333 106.5,62.5C 105.85,60.5648 105.517,58.5648 105.5,56.5 Z"/></g>
<g><path style="opacity:1" fill="#988f98" d="M 106.5,56.5 C 108.718,58.6514 110.052,61.3181 110.5,64.5C 109.508,64.3284 108.842,64.6618 108.5,65.5C 107.167,65.5 106.5,64.8333 106.5,63.5C 107.497,63.5299 108.164,63.0299 108.5,62C 107.68,60.1997 107.014,58.3664 106.5,56.5 Z"/></g>
<g><path style="opacity:1" fill="#9f8ba0" d="M 121.5,60.5 C 129.096,59.9249 135.762,61.9249 141.5,66.5C 137.519,65.9791 133.519,65.6458 129.5,65.5C 127.052,64.5269 124.385,64.1936 121.5,64.5C 121.5,63.1667 121.5,61.8333 121.5,60.5 Z"/></g>
<g><path style="opacity:1" fill="#60525f" d="M 119.5,57.5 C 120.167,57.5 120.833,57.5 121.5,57.5C 121.5,58.5 121.5,59.5 121.5,60.5C 121.5,61.8333 121.5,63.1667 121.5,64.5C 124.385,64.1936 127.052,64.5269 129.5,65.5C 122.5,65.5 115.5,65.5 108.5,65.5C 108.842,64.6618 109.508,64.3284 110.5,64.5C 110.833,64.5 111.167,64.5 111.5,64.5C 114.5,64.5 117.5,64.5 120.5,64.5C 120.702,62.0504 120.369,59.717 119.5,57.5 Z"/></g>
<g><path style="opacity:1" fill="#9c879c" d="M 105.5,56.5 C 105.517,58.5648 105.85,60.5648 106.5,62.5C 106.026,63.9499 104.693,65.1165 102.5,66C 93.5047,67.5659 84.5047,69.0659 75.5,70.5C 80.2646,67.7316 85.2646,65.2316 90.5,63C 94.5812,62.9615 98.4146,62.1281 102,60.5C 104.691,61.3805 105.191,60.3805 103.5,57.5C 104.167,57.1667 104.833,56.8333 105.5,56.5 Z"/></g>
<g><path style="opacity:1" fill="#978098" d="M 154.5,79.5 C 152.87,81.0261 152.037,83.0261 152,85.5C 151.329,84.7476 150.496,84.4142 149.5,84.5C 147.5,83.1667 145.833,81.5 144.5,79.5C 143.391,78.71 142.058,78.21 140.5,78C 139.874,77.2496 139.374,76.4162 139,75.5C 138.22,77.3869 138.387,79.0536 139.5,80.5C 139.5,81.8333 139.5,83.1667 139.5,84.5C 135.629,84.815 131.962,84.4816 128.5,83.5C 130.38,83.7709 131.713,83.1042 132.5,81.5C 133.043,81.44 133.376,81.1067 133.5,80.5C 131.506,78.1843 130.506,75.5176 130.5,72.5C 131.492,70.9735 132.992,70.3068 135,70.5C 142.135,70.5082 148.802,72.1748 155,75.5C 155.195,76.8193 155.028,78.1526 154.5,79.5 Z"/></g>
<g><path style="opacity:1" fill="#827083" d="M 116.5,72.5 C 116.833,72.5 117.167,72.5 117.5,72.5C 117.88,74.698 117.213,76.3646 115.5,77.5C 115.038,76.1201 114.038,75.4534 112.5,75.5C 110.423,76.9371 108.09,77.6038 105.5,77.5C 107.213,71.745 110.546,70.4117 115.5,73.5C 116.107,73.3764 116.44,73.0431 116.5,72.5 Z"/></g>
<g><path style="opacity:1" fill="#ebe6e9" d="M 101.5,71.5 C 100.728,72.6935 99.7281,73.6935 98.5,74.5C 93.0348,73.2035 88.3682,74.8702 84.5,79.5C 83.7025,79.0431 83.3691,78.3764 83.5,77.5C 88.1101,71.8616 94.1101,68.8616 101.5,68.5C 101.5,69.5 101.5,70.5 101.5,71.5 Z"/></g>
<g><path style="opacity:1" fill="#574f47" d="M 101.5,71.5 C 101.833,72.1667 102.167,72.8333 102.5,73.5C 96.6205,78.3316 97.6205,80.665 105.5,80.5C 103.372,81.6291 101.039,81.7958 98.5,81C 97.6198,79.6439 97.2865,78.1439 97.5,76.5C 96.1667,76.5 94.8333,76.5 93.5,76.5C 95.0276,75.6908 96.6943,75.0241 98.5,74.5C 99.7281,73.6935 100.728,72.6935 101.5,71.5 Z"/></g>
<g><path style="opacity:1" fill="#e9e4e9" d="M 116.5,72.5 C 116.44,73.0431 116.107,73.3764 115.5,73.5C 110.546,70.4117 107.213,71.745 105.5,77.5C 105.5,78.1667 105.5,78.8333 105.5,79.5C 105.5,79.8333 105.5,80.1667 105.5,80.5C 97.6205,80.665 96.6205,78.3316 102.5,73.5C 103.15,73.8039 103.817,74.1373 104.5,74.5C 105.818,71.35 107.984,69.0167 111,67.5C 113.991,67.9946 115.824,69.6612 116.5,72.5 Z"/></g>
<g><path style="opacity:1" fill="#776b25" d="M 115.5,77.5 C 115.343,78.8734 115.51,80.2068 116,81.5C 118.381,80.565 120.881,80.2317 123.5,80.5C 123.5,80.8333 123.5,81.1667 123.5,81.5C 120.455,81.5079 117.455,81.8413 114.5,82.5C 114.617,80.5165 113.95,78.8498 112.5,77.5C 110.137,78.1702 107.804,78.8368 105.5,79.5C 105.5,78.8333 105.5,78.1667 105.5,77.5C 108.09,77.6038 110.423,76.9371 112.5,75.5C 114.038,75.4534 115.038,76.1201 115.5,77.5 Z"/></g>
<g><path style="opacity:1" fill="#6f5f6c" d="M 130.5,72.5 C 130.506,75.5176 131.506,78.1843 133.5,80.5C 133.376,81.1067 133.043,81.44 132.5,81.5C 129.529,76.1111 128.195,76.7778 128.5,83.5C 127.356,81.8998 126.189,80.2331 125,78.5C 124.517,79.448 124.351,80.448 124.5,81.5C 124.167,81.5 123.833,81.5 123.5,81.5C 123.5,81.1667 123.5,80.8333 123.5,80.5C 123.244,78.2075 123.577,76.0408 124.5,74C 123.692,72.2942 122.359,71.4609 120.5,71.5C 122.378,69.4911 124.544,69.1578 127,70.5C 127.276,74.3298 128.442,74.9965 130.5,72.5 Z"/></g>
<g><path style="opacity:1" fill="#9a8d1c" d="M 93.5,76.5 C 94.8333,76.5 96.1667,76.5 97.5,76.5C 97.2865,78.1439 97.6198,79.6439 98.5,81C 101.039,81.7958 103.372,81.6291 105.5,80.5C 105.5,80.1667 105.5,79.8333 105.5,79.5C 107.804,78.8368 110.137,78.1702 112.5,77.5C 113.95,78.8498 114.617,80.5165 114.5,82.5C 117.455,81.8413 120.455,81.5079 123.5,81.5C 124.251,88.6389 122.917,95.3056 119.5,101.5C 116.167,101.5 112.833,101.5 109.5,101.5C 109.335,98.1501 109.502,94.8168 110,91.5C 110.973,93.3921 111.64,95.3921 112,97.5C 112.825,93.7887 112.659,90.122 111.5,86.5C 110.232,85.5721 108.899,85.4054 107.5,86C 105.681,86.7403 104.348,87.9069 103.5,89.5C 102.778,89.0825 102.278,88.4158 102,87.5C 99.9935,92.1877 97.4935,96.5211 94.5,100.5C 92.8333,100.5 91.1667,100.5 89.5,100.5C 90.3434,96.4784 92.0101,92.8117 94.5,89.5C 92.1413,88.2857 89.808,88.2857 87.5,89.5C 86.4747,92.9111 85.1414,96.2444 83.5,99.5C 77.6865,99.2962 72.0198,98.2962 66.5,96.5C 66.811,92.8298 68.4777,89.8298 71.5,87.5C 72.4168,86.8728 73.4168,86.5394 74.5,86.5C 73.9174,90.9294 75.5841,92.2628 79.5,90.5C 80.8333,88.1667 82.1667,85.8333 83.5,83.5C 84.1667,83.5 84.5,83.8333 84.5,84.5C 85.2506,85.5735 86.2506,85.7401 87.5,85C 87.9518,80.8833 89.9518,78.05 93.5,76.5 Z"/></g>
<g><path style="opacity:1" fill="#7b6f78" d="M 98.5,74.5 C 96.6943,75.0241 95.0276,75.6908 93.5,76.5C 89.9518,78.05 87.9518,80.8833 87.5,85C 86.2506,85.7401 85.2506,85.5735 84.5,84.5C 86.8852,83.1327 86.5518,81.7993 83.5,80.5C 82.4376,81.4246 82.4376,82.4246 83.5,83.5C 82.1667,85.8333 80.8333,88.1667 79.5,90.5C 80.147,87.8248 80.4804,85.1581 80.5,82.5C 79.6446,81.707 78.8113,82.0403 78,83.5C 77.805,82.1807 77.9717,80.8474 78.5,79.5C 80.5485,80.3255 82.2151,79.6589 83.5,77.5C 83.3691,78.3764 83.7025,79.0431 84.5,79.5C 88.3682,74.8702 93.0348,73.2035 98.5,74.5 Z"/></g>
<g><path style="opacity:1" fill="#eee9ee" d="M 120.5,71.5 C 122.359,71.4609 123.692,72.2942 124.5,74C 123.577,76.0408 123.244,78.2075 123.5,80.5C 120.881,80.2317 118.381,80.565 116,81.5C 115.51,80.2068 115.343,78.8734 115.5,77.5C 117.213,76.3646 117.88,74.698 117.5,72.5C 118.391,71.8902 119.391,71.5569 120.5,71.5 Z"/></g>
<g><path style="opacity:1" fill="#453d3c" d="M 144.5,79.5 C 142.585,79.2155 140.919,79.5489 139.5,80.5C 138.387,79.0536 138.22,77.3869 139,75.5C 139.374,76.4162 139.874,77.2496 140.5,78C 142.058,78.21 143.391,78.71 144.5,79.5 Z"/></g>
<g><path style="opacity:1" fill="#d4ced3" d="M 43.5,78.5 C 44.552,78.3505 45.552,78.5172 46.5,79C 43.9755,80.6162 41.3088,81.6162 38.5,82C 40.2331,80.8111 41.8998,79.6444 43.5,78.5 Z"/></g>
<g><path style="opacity:1" fill="#e9e3e8" d="M 132.5,81.5 C 131.713,83.1042 130.38,83.7709 128.5,83.5C 128.195,76.7778 129.529,76.1111 132.5,81.5 Z"/></g>
<g><path style="opacity:1" fill="#9b839c" d="M 156.5,80.5 C 159.513,80.5809 161.513,81.9142 162.5,84.5C 162.702,86.9892 162.202,89.3225 161,91.5C 160.617,90.944 160.117,90.6107 159.5,90.5C 159.539,89.2438 159.039,88.2438 158,87.5C 156.644,88.3802 155.144,88.7135 153.5,88.5C 153.338,86.4727 153.505,84.4727 154,82.5C 154.417,81.244 155.25,80.5774 156.5,80.5 Z"/></g>
<g><path style="opacity:1" fill="#ede9ed" d="M 84.5,84.5 C 84.5,83.8333 84.1667,83.5 83.5,83.5C 82.4376,82.4246 82.4376,81.4246 83.5,80.5C 86.5518,81.7993 86.8852,83.1327 84.5,84.5 Z"/></g>
<g><path style="opacity:1" fill="#ebe6e9" d="M 78.5,79.5 C 77.9717,80.8474 77.805,82.1807 78,83.5C 78.8113,82.0403 79.6446,81.707 80.5,82.5C 80.4804,85.1581 80.147,87.8248 79.5,90.5C 75.5841,92.2628 73.9174,90.9294 74.5,86.5C 73.8478,85.2749 72.6811,84.6083 71,84.5C 68.2298,84.7567 65.7298,85.7567 63.5,87.5C 63.1667,87.3333 62.8333,87.1667 62.5,87C 65.1502,83.7927 64.9835,83.2927 62,85.5C 60.9242,87.0672 60.0909,88.7338 59.5,90.5C 61.1836,93.1777 62.8502,95.8444 64.5,98.5C 62.4632,99.8465 60.4632,101.18 58.5,102.5C 57.9987,100.754 57.3321,99.754 56.5,99.5C 55.5,99.5 54.5,99.5 53.5,99.5C 50.4208,99.8042 47.5875,100.804 45,102.5C 44.8195,104.488 44.9862,106.488 45.5,108.5C 43.4496,108.961 41.4496,109.628 39.5,110.5C 38.4822,109.807 37.4822,109.141 36.5,108.5C 36.5,107.833 36.5,107.167 36.5,106.5C 35.824,104.141 34.9907,101.808 34,99.5C 32.6439,98.6198 31.1439,98.2865 29.5,98.5C 34.5579,91.8826 41.2246,89.7159 49.5,92C 47.0953,93.6146 47.0953,94.2812 49.5,94C 52.7873,88.3787 57.1207,83.712 62.5,80C 64.0349,79.5038 65.5349,79.6705 67,80.5C 69.2084,78.8139 71.7084,77.8139 74.5,77.5C 76.3545,77.3402 77.6879,78.0069 78.5,79.5 Z"/></g>
<g><path style="opacity:1" fill="#4e434e" d="M 154.5,79.5 C 155.492,79.3284 156.158,79.6618 156.5,80.5C 155.25,80.5774 154.417,81.244 154,82.5C 153.505,84.4727 153.338,86.4727 153.5,88.5C 151.833,87.5 150.5,86.1667 149.5,84.5C 150.496,84.4142 151.329,84.7476 152,85.5C 152.037,83.0261 152.87,81.0261 154.5,79.5 Z"/></g>
<g><path style="opacity:1" fill="#867585" d="M 74.5,86.5 C 73.4168,86.5394 72.4168,86.8728 71.5,87.5C 68.4777,89.8298 66.811,92.8298 66.5,96.5C 66.1667,97.1667 65.8333,97.8333 65.5,98.5C 65.1667,98.5 64.8333,98.5 64.5,98.5C 62.8502,95.8444 61.1836,93.1777 59.5,90.5C 60.0909,88.7338 60.9242,87.0672 62,85.5C 64.9835,83.2927 65.1502,83.7927 62.5,87C 62.8333,87.1667 63.1667,87.3333 63.5,87.5C 65.7298,85.7567 68.2298,84.7567 71,84.5C 72.6811,84.6083 73.8478,85.2749 74.5,86.5 Z"/></g>
<g><path style="opacity:1" fill="#efdf53" d="M 109.5,101.5 C 108.167,101.5 106.833,101.5 105.5,101.5C 104.518,97.6836 103.851,93.6836 103.5,89.5C 104.348,87.9069 105.681,86.7403 107.5,86C 108.899,85.4054 110.232,85.5721 111.5,86.5C 112.659,90.122 112.825,93.7887 112,97.5C 111.64,95.3921 110.973,93.3921 110,91.5C 109.502,94.8168 109.335,98.1501 109.5,101.5 Z"/></g>
<g><path style="opacity:1" fill="#ecdc50" d="M 132.5,99.5 C 131.5,99.5 130.5,99.5 129.5,99.5C 127.708,96.3664 126.375,93.0331 125.5,89.5C 125.369,88.7611 125.536,88.0944 126,87.5C 127.667,87.8333 129.333,88.1667 131,88.5C 131.936,92.1135 132.436,95.7802 132.5,99.5 Z"/></g>
<g><path style="opacity:1" fill="#3e3834" d="M 159.5,90.5 C 157.374,89.9518 155.374,89.2852 153.5,88.5C 155.144,88.7135 156.644,88.3802 158,87.5C 159.039,88.2438 159.539,89.2438 159.5,90.5 Z"/></g>
<g><path style="opacity:1" fill="#ecdc53" d="M 89.5,100.5 C 88.1667,100.5 86.8333,100.5 85.5,100.5C 86.6422,96.9288 87.3089,93.2621 87.5,89.5C 89.808,88.2857 92.1413,88.2857 94.5,89.5C 92.0101,92.8117 90.3434,96.4784 89.5,100.5 Z"/></g>
<g><path style="opacity:1" fill="#998c1c" d="M 128.5,83.5 C 131.962,84.4816 135.629,84.815 139.5,84.5C 139.5,83.1667 139.5,81.8333 139.5,80.5C 140.919,79.5489 142.585,79.2155 144.5,79.5C 145.833,81.5 147.5,83.1667 149.5,84.5C 150.5,86.1667 151.833,87.5 153.5,88.5C 155.374,89.2852 157.374,89.9518 159.5,90.5C 160.167,92.5 160.833,94.5 161.5,96.5C 162.951,99.8103 163.618,103.31 163.5,107C 162.887,113.335 161.553,119.502 159.5,125.5C 158.833,125.833 158.167,126.167 157.5,126.5C 158.734,113.941 156.401,102.107 150.5,91C 147.89,90.8528 145.556,90.0194 143.5,88.5C 142.702,88.9569 142.369,89.6236 142.5,90.5C 141.523,93.2869 141.19,96.2869 141.5,99.5C 138.5,99.5 135.5,99.5 132.5,99.5C 132.436,95.7802 131.936,92.1135 131,88.5C 129.333,88.1667 127.667,87.8333 126,87.5C 125.536,88.0944 125.369,88.7611 125.5,89.5C 125.414,86.852 125.08,84.1853 124.5,81.5C 124.351,80.448 124.517,79.448 125,78.5C 126.189,80.2331 127.356,81.8998 128.5,83.5 Z"/></g>
<g><path style="opacity:1" fill="#4b4148" d="M 162.5,84.5 C 163.167,84.5 163.833,84.5 164.5,84.5C 163.994,87.0547 164.328,89.7214 165.5,92.5C 165.333,92.8333 165.167,93.1667 165,93.5C 164.085,92.6721 163.419,91.6721 163,90.5C 162.322,92.5976 162.489,94.5976 163.5,96.5C 162.833,96.5 162.167,96.5 161.5,96.5C 160.833,94.5 160.167,92.5 159.5,90.5C 160.117,90.6107 160.617,90.944 161,91.5C 162.202,89.3225 162.702,86.9892 162.5,84.5 Z"/></g>
<g><path style="opacity:1" fill="#927d93" d="M 164.5,84.5 C 166.527,84.3379 168.527,84.5045 170.5,85C 172.907,87.7385 174.907,90.7385 176.5,94C 175.899,95.605 174.899,96.9384 173.5,98C 174.381,98.7083 175.047,99.5416 175.5,100.5C 174.089,102.539 172.089,103.539 169.5,103.5C 169.167,103.5 168.833,103.5 168.5,103.5C 168.5,101.167 168.5,98.8333 168.5,96.5C 166.833,96.5 165.167,96.5 163.5,96.5C 162.489,94.5976 162.322,92.5976 163,90.5C 163.419,91.6721 164.085,92.6721 165,93.5C 165.167,93.1667 165.333,92.8333 165.5,92.5C 164.328,89.7214 163.994,87.0547 164.5,84.5 Z"/></g>
<g><path style="opacity:1" fill="#605927" d="M 142.5,90.5 C 142.5,93.1667 142.5,95.8333 142.5,98.5C 142.5,99.1667 142.5,99.8333 142.5,100.5C 141.766,101.708 141.433,103.041 141.5,104.5C 141.167,104.5 140.833,104.5 140.5,104.5C 140.5,103.5 140.5,102.5 140.5,101.5C 140.833,100.833 141.167,100.167 141.5,99.5C 141.19,96.2869 141.523,93.2869 142.5,90.5 Z"/></g>
<g><path style="opacity:1" fill="#a38163" d="M 103.5,89.5 C 103.851,93.6836 104.518,97.6836 105.5,101.5C 105.5,102.167 105.5,102.833 105.5,103.5C 104.513,108.305 104.179,113.305 104.5,118.5C 103.167,120.167 103.167,121.833 104.5,123.5C 104.217,124.289 103.717,124.956 103,125.5C 102.833,124 102.667,122.5 102.5,121C 103.466,114.516 103.632,108.016 103,101.5C 100.129,107.546 97.6295,113.546 95.5,119.5C 95.5,117.5 95.5,115.5 95.5,113.5C 92.8333,113.5 90.1667,113.5 87.5,113.5C 89.424,109.983 91.0906,106.316 92.5,102.5C 93.5,102.167 94.1667,101.5 94.5,100.5C 97.4935,96.5211 99.9935,92.1877 102,87.5C 102.278,88.4158 102.778,89.0825 103.5,89.5 Z"/></g>
<g><path style="opacity:1" fill="#a98364" d="M 123.5,81.5 C 123.833,81.5 124.167,81.5 124.5,81.5C 125.08,84.1853 125.414,86.852 125.5,89.5C 126.375,93.0331 127.708,96.3664 129.5,99.5C 129.833,100.167 130.167,100.833 130.5,101.5C 130.5,102.5 130.5,103.5 130.5,104.5C 129.883,104.389 129.383,104.056 129,103.5C 127.833,105.833 126.667,108.167 125.5,110.5C 126.524,111.852 127.524,113.185 128.5,114.5C 127.833,114.5 127.5,114.833 127.5,115.5C 126.735,114.34 125.735,113.34 124.5,112.5C 120.833,118.167 116.167,122.833 110.5,126.5C 109.831,124.369 109.165,122.369 108.5,120.5C 111.806,114.851 115.139,109.184 118.5,103.5C 118.833,102.833 119.167,102.167 119.5,101.5C 122.917,95.3056 124.251,88.6389 123.5,81.5 Z"/></g>
<g><path style="opacity:1" fill="#f5f3e9" d="M 66.5,96.5 C 72.0198,98.2962 77.6865,99.2962 83.5,99.5C 83.1667,100.5 82.5,101.167 81.5,101.5C 75.7546,101.946 70.4213,100.946 65.5,98.5C 65.8333,97.8333 66.1667,97.1667 66.5,96.5 Z"/></g>
<g><path style="opacity:1" fill="#faf3cf" d="M 142.5,98.5 C 155.755,98.5163 155.755,99.183 142.5,100.5C 142.5,99.8333 142.5,99.1667 142.5,98.5 Z"/></g>
<g><path style="opacity:1" fill="#ebdb51" d="M 157.5,126.5 C 157.617,128.484 156.95,130.15 155.5,131.5C 154.197,126.583 152.53,121.917 150.5,117.5C 150.068,116.29 149.401,115.29 148.5,114.5C 147.149,110.458 144.815,107.125 141.5,104.5C 141.433,103.041 141.766,101.708 142.5,100.5C 155.755,99.183 155.755,98.5163 142.5,98.5C 142.5,95.8333 142.5,93.1667 142.5,90.5C 142.369,89.6236 142.702,88.9569 143.5,88.5C 145.556,90.0194 147.89,90.8528 150.5,91C 156.401,102.107 158.734,113.941 157.5,126.5 Z"/></g>
<g><path style="opacity:1" fill="#998399" d="M 29.5,98.5 C 31.1439,98.2865 32.6439,98.6198 34,99.5C 34.9907,101.808 35.824,104.141 36.5,106.5C 34.6954,107.237 33.0287,108.237 31.5,109.5C 30.1568,107.096 28.8234,104.762 27.5,102.5C 27.2291,100.62 27.8958,99.287 29.5,98.5 Z"/></g>
<g><path style="opacity:1" fill="#f9f8f2" d="M 85.5,100.5 C 86.8333,100.5 88.1667,100.5 89.5,100.5C 91.1667,100.5 92.8333,100.5 94.5,100.5C 94.1667,101.5 93.5,102.167 92.5,102.5C 90.8333,102.5 89.1667,102.5 87.5,102.5C 86.8333,102.5 86.1667,102.5 85.5,102.5C 85.5,101.833 85.5,101.167 85.5,100.5 Z"/></g>
<g><path style="opacity:1" fill="#ede8cc" d="M 129.5,99.5 C 130.5,99.5 131.5,99.5 132.5,99.5C 135.5,99.5 138.5,99.5 141.5,99.5C 141.167,100.167 140.833,100.833 140.5,101.5C 138.167,101.5 135.833,101.5 133.5,101.5C 132.5,101.5 131.5,101.5 130.5,101.5C 130.167,100.833 129.833,100.167 129.5,99.5 Z"/></g>
<g><path style="opacity:1" fill="#675a60" d="M 53.5,99.5 C 50.8046,102.526 48.1379,105.526 45.5,108.5C 44.9862,106.488 44.8195,104.488 45,102.5C 47.5875,100.804 50.4208,99.8042 53.5,99.5 Z"/></g>
<g><path style="opacity:1" fill="#9d8f1d" d="M 64.5,98.5 C 64.8333,98.5 65.1667,98.5 65.5,98.5C 70.4213,100.946 75.7546,101.946 81.5,101.5C 80.758,103.98 79.758,106.313 78.5,108.5C 76.6736,110.147 75.3403,112.147 74.5,114.5C 72.1,116.296 70.4333,118.63 69.5,121.5C 66.3251,125.19 63.6585,129.19 61.5,133.5C 61.3273,124.756 61.9939,116.089 63.5,107.5C 61.1417,107.253 59.1417,107.919 57.5,109.5C 57.6741,107.139 58.0074,104.806 58.5,102.5C 60.4632,101.18 62.4632,99.8465 64.5,98.5 Z"/></g>
<g><path style="opacity:1" fill="#f3f0e1" d="M 105.5,101.5 C 106.833,101.5 108.167,101.5 109.5,101.5C 112.833,101.5 116.167,101.5 119.5,101.5C 119.167,102.167 118.833,102.833 118.5,103.5C 115.167,103.5 111.833,103.5 108.5,103.5C 107.5,103.5 106.5,103.5 105.5,103.5C 105.5,102.833 105.5,102.167 105.5,101.5 Z"/></g>
<g><path style="opacity:1" fill="#6d635d" d="M 177.5,99.5 C 177.414,100.496 177.748,101.329 178.5,102C 177.139,103.584 176.472,105.418 176.5,107.5C 175.102,105.891 173.435,105.058 171.5,105C 171.167,105.333 170.833,105.667 170.5,106C 171.71,107.039 172.71,108.206 173.5,109.5C 172.833,109.5 172.5,109.833 172.5,110.5C 170.182,108.815 169.182,106.481 169.5,103.5C 172.089,103.539 174.089,102.539 175.5,100.5C 176.167,100.167 176.833,99.8333 177.5,99.5 Z"/></g>
<g><path style="opacity:1" fill="#998c1a" d="M 108.5,103.5 C 111.833,103.5 115.167,103.5 118.5,103.5C 115.139,109.184 111.806,114.851 108.5,120.5C 107.167,121.5 105.833,122.5 104.5,123.5C 103.167,121.833 103.167,120.167 104.5,118.5C 106.218,117.152 107.384,114.818 108,111.5C 108.497,108.854 108.664,106.187 108.5,103.5 Z"/></g>
<g><path style="opacity:1" fill="#ece8eb" d="M 27.5,103.5 C 28.9224,109.614 28.2558,109.947 25.5,104.5C 26.1667,104.167 26.8333,103.833 27.5,103.5 Z"/></g>
<g><path style="opacity:1" fill="#856c48" d="M 87.5,89.5 C 87.3089,93.2621 86.6422,96.9288 85.5,100.5C 85.5,101.167 85.5,101.833 85.5,102.5C 84.5184,105.962 84.185,109.629 84.5,113.5C 83.0387,114.686 81.7054,114.686 80.5,113.5C 82.9783,111.517 83.1449,109.184 81,106.5C 80.2917,107.381 79.4584,108.047 78.5,108.5C 79.758,106.313 80.758,103.98 81.5,101.5C 82.5,101.167 83.1667,100.5 83.5,99.5C 85.1414,96.2444 86.4747,92.9111 87.5,89.5 Z"/></g>
<g><path style="opacity:1" fill="#9f9121" d="M 87.5,102.5 C 89.1667,102.5 90.8333,102.5 92.5,102.5C 91.0906,106.316 89.424,109.983 87.5,113.5C 86.8333,113.5 86.1667,113.5 85.5,113.5C 86.1667,109.833 86.8333,106.167 87.5,102.5 Z"/></g>
<g><path style="opacity:1" fill="#f9dec7" d="M 104.5,123.5 C 105.833,122.5 107.167,121.5 108.5,120.5C 109.165,122.369 109.831,124.369 110.5,126.5C 116.167,122.833 120.833,118.167 124.5,112.5C 125.735,113.34 126.735,114.34 127.5,115.5C 127.335,119.182 127.501,122.848 128,126.5C 131.057,127.451 134.223,127.784 137.5,127.5C 136.524,128.815 135.524,130.148 134.5,131.5C 137.806,135.258 141.806,136.258 146.5,134.5C 145.145,133.325 145.312,132.325 147,131.5C 147.483,132.448 147.649,133.448 147.5,134.5C 147.5,136.833 147.5,139.167 147.5,141.5C 146.512,144.076 145.512,146.743 144.5,149.5C 141.167,152.167 138.167,155.167 135.5,158.5C 133.596,158.738 132.262,159.738 131.5,161.5C 129.847,161.66 128.514,162.326 127.5,163.5C 118.6,165.162 109.6,165.828 100.5,165.5C 97.7458,164.054 94.7458,163.054 91.5,162.5C 85.6767,159.422 80.0101,156.089 74.5,152.5C 68.8213,146.406 68.1546,139.739 72.5,132.5C 74.5638,132.762 75.8971,133.929 76.5,136C 81.8655,137.264 85.5322,135.431 87.5,130.5C 87.1822,129.353 86.5156,128.519 85.5,128C 87.0581,127.79 88.3915,127.29 89.5,126.5C 91.1992,126.66 92.8659,126.494 94.5,126C 95.2524,125.329 95.5858,124.496 95.5,123.5C 95.5,122.167 95.5,120.833 95.5,119.5C 97.6295,113.546 100.129,107.546 103,101.5C 103.632,108.016 103.466,114.516 102.5,121C 102.667,122.5 102.833,124 103,125.5C 103.717,124.956 104.217,124.289 104.5,123.5 Z"/></g>
<g><path style="opacity:1" fill="#eada4f" d="M 105.5,103.5 C 106.5,103.5 107.5,103.5 108.5,103.5C 108.664,106.187 108.497,108.854 108,111.5C 107.384,114.818 106.218,117.152 104.5,118.5C 104.179,113.305 104.513,108.305 105.5,103.5 Z"/></g>
<g><path style="opacity:1" fill="#95881c" d="M 176.5,107.5 C 176.833,107.5 177.167,107.5 177.5,107.5C 176.817,109.176 175.483,109.843 173.5,109.5C 172.71,108.206 171.71,107.039 170.5,106C 170.833,105.667 171.167,105.333 171.5,105C 173.435,105.058 175.102,105.891 176.5,107.5 Z"/></g>
<g><path style="opacity:1" fill="#f0d9c2" d="M 130.5,104.5 C 130.851,107.903 131.518,111.237 132.5,114.5C 131.167,114.5 129.833,114.5 128.5,114.5C 127.524,113.185 126.524,111.852 125.5,110.5C 126.667,108.167 127.833,105.833 129,103.5C 129.383,104.056 129.883,104.389 130.5,104.5 Z"/></g>
<g><path style="opacity:1" fill="#9e911d" d="M 133.5,101.5 C 135.833,101.5 138.167,101.5 140.5,101.5C 140.5,102.5 140.5,103.5 140.5,104.5C 138.866,107.768 137.199,111.101 135.5,114.5C 135.167,114.5 134.833,114.5 134.5,114.5C 135.221,111.183 135.388,107.849 135,104.5C 134.667,105.167 134.333,105.833 134,106.5C 133.506,104.866 133.34,103.199 133.5,101.5 Z"/></g>
<g><path style="opacity:1" fill="#5f5559" d="M 27.5,102.5 C 28.8234,104.762 30.1568,107.096 31.5,109.5C 33.0287,108.237 34.6954,107.237 36.5,106.5C 36.5,107.167 36.5,107.833 36.5,108.5C 34.9731,108.427 33.9731,109.094 33.5,110.5C 32.209,110.263 31.209,110.596 30.5,111.5C 29.8333,111.833 29.1667,112.167 28.5,112.5C 27.8333,109.833 26.1667,108.167 23.5,107.5C 23.9321,106.29 24.5987,105.29 25.5,104.5C 28.2558,109.947 28.9224,109.614 27.5,103.5C 27.5,103.167 27.5,102.833 27.5,102.5 Z"/></g>
<g><path style="opacity:1" fill="#e7d850" d="M 85.5,102.5 C 86.1667,102.5 86.8333,102.5 87.5,102.5C 86.8333,106.167 86.1667,109.833 85.5,113.5C 85.1667,113.5 84.8333,113.5 84.5,113.5C 84.185,109.629 84.5184,105.962 85.5,102.5 Z"/></g>
<g><path style="opacity:1" fill="#7a6e45" d="M 130.5,104.5 C 132.277,107.505 133.277,110.838 133.5,114.5C 133.167,114.5 132.833,114.5 132.5,114.5C 131.518,111.237 130.851,107.903 130.5,104.5 Z"/></g>
<g><path style="opacity:1" fill="#ebdb51" d="M 130.5,101.5 C 131.5,101.5 132.5,101.5 133.5,101.5C 133.34,103.199 133.506,104.866 134,106.5C 134.333,105.833 134.667,105.167 135,104.5C 135.388,107.849 135.221,111.183 134.5,114.5C 134.167,114.5 133.833,114.5 133.5,114.5C 133.277,110.838 132.277,107.505 130.5,104.5C 130.5,103.5 130.5,102.5 130.5,101.5 Z"/></g>
<g><path style="opacity:1" fill="#9e899f" d="M 23.5,107.5 C 26.1667,108.167 27.8333,109.833 28.5,112.5C 27.2905,112.932 26.2905,113.599 25.5,114.5C 23.5038,116.917 22.5038,116.25 22.5,112.5C 22.366,110.708 22.6993,109.042 23.5,107.5 Z"/></g>
<g><path style="opacity:1" fill="#eede51" d="M 61.5,133.5 C 61.6309,134.376 61.2975,135.043 60.5,135.5C 59.8302,133.709 59.1635,132.042 58.5,130.5C 58.2269,123.496 57.8936,116.496 57.5,109.5C 59.1417,107.919 61.1417,107.253 63.5,107.5C 61.9939,116.089 61.3273,124.756 61.5,133.5 Z"/></g>
<g><path style="opacity:1" fill="#eede52" d="M 65.5,102.5 C 67.5273,102.338 69.5273,102.505 71.5,103C 69.6126,106.659 68.1126,110.492 67,114.5C 65.6463,110.637 65.1463,106.637 65.5,102.5 Z"/></g>
<g><path style="opacity:1" fill="#a78162" d="M 140.5,104.5 C 140.833,104.5 141.167,104.5 141.5,104.5C 144.815,107.125 147.149,110.458 148.5,114.5C 148.5,116.5 148.5,118.5 148.5,120.5C 146.946,119.086 145.612,117.419 144.5,115.5C 143.478,115.855 142.811,116.522 142.5,117.5C 140.787,115.15 138.453,114.15 135.5,114.5C 137.199,111.101 138.866,107.768 140.5,104.5 Z"/></g>
<g><path style="opacity:1" fill="#9a8d1e" d="M 168.5,103.5 C 168.833,103.5 169.167,103.5 169.5,103.5C 169.182,106.481 170.182,108.815 172.5,110.5C 172.5,111.167 172.833,111.5 173.5,111.5C 173.5,111.833 173.5,112.167 173.5,112.5C 174.275,117.797 174.608,123.13 174.5,128.5C 174.634,130.292 174.301,131.958 173.5,133.5C 172.15,134.483 171.15,135.816 170.5,137.5C 168.778,134.721 167.611,131.721 167,128.5C 166.667,128.833 166.333,129.167 166,129.5C 165.502,127.456 164.335,126.122 162.5,125.5C 162.322,124.305 161.989,123.138 161.5,122C 165.68,114.407 166.347,106.574 163.5,98.5C 164.689,97.5713 166.022,97.238 167.5,97.5C 167.205,99.7354 167.539,101.735 168.5,103.5 Z"/></g>
<g><path style="opacity:1" fill="#605823" d="M 161.5,96.5 C 162.167,96.5 162.833,96.5 163.5,96.5C 165.167,96.5 166.833,96.5 168.5,96.5C 168.5,98.8333 168.5,101.167 168.5,103.5C 167.539,101.735 167.205,99.7354 167.5,97.5C 166.022,97.238 164.689,97.5713 163.5,98.5C 166.347,106.574 165.68,114.407 161.5,122C 161.989,123.138 162.322,124.305 162.5,125.5C 161.5,124.167 160.5,124.167 159.5,125.5C 161.553,119.502 162.887,113.335 163.5,107C 163.618,103.31 162.951,99.8103 161.5,96.5 Z"/></g>
<g><path style="opacity:1" fill="#8f8871" d="M 177.5,107.5 C 180.473,108.987 183.473,110.487 186.5,112C 182.557,112.538 178.724,112.038 175,110.5C 174.235,110.57 173.735,110.903 173.5,111.5C 172.833,111.5 172.5,111.167 172.5,110.5C 172.5,109.833 172.833,109.5 173.5,109.5C 175.483,109.843 176.817,109.176 177.5,107.5 Z"/></g>
<g><path style="opacity:1" fill="#eddd52" d="M 56.5,113.5 C 56.4497,119.389 57.1164,125.056 58.5,130.5C 58.0632,133.807 58.7298,136.807 60.5,139.5C 62.2475,134.2 64.9142,129.534 68.5,125.5C 68.5,129.5 68.5,133.5 68.5,137.5C 67.3376,141.98 67.3376,146.313 68.5,150.5C 68.5548,153.614 69.8881,155.948 72.5,157.5C 74.1182,159.785 76.1182,161.785 78.5,163.5C 79.2485,165.332 80.2485,166.999 81.5,168.5C 80.5182,174.788 78.1849,180.454 74.5,185.5C 71.4744,188.195 68.4744,190.862 65.5,193.5C 63.7162,193.893 62.0495,194.559 60.5,195.5C 64.9428,184.257 64.4428,173.257 59,162.5C 58.6667,164.167 58.3333,165.833 58,167.5C 57.3292,166.748 56.4959,166.414 55.5,166.5C 51.9802,157.576 51.6468,148.409 54.5,139C 54.5922,136.179 53.9256,133.679 52.5,131.5C 51.1309,126.422 49.4643,121.422 47.5,116.5C 48.4471,114.6 49.9471,113.267 52,112.5C 52.4828,111.552 52.6495,110.552 52.5,109.5C 53.5,109.5 54.5,109.5 55.5,109.5C 55.2322,111.099 55.5655,112.432 56.5,113.5 Z"/></g>
<g><path style="opacity:1" fill="#e7e2e6" d="M 22.5,112.5 C 22.5038,116.25 23.5038,116.917 25.5,114.5C 26.0431,114.56 26.3764,114.893 26.5,115.5C 25.8284,117.16 24.8284,118.493 23.5,119.5C 21.0752,119.684 21.0752,120.351 23.5,121.5C 22.9984,122.521 22.3317,122.688 21.5,122C 20.2567,120.846 19.2567,119.512 18.5,118C 19.1667,117.667 19.8333,117.333 20.5,117C 18.4497,116.584 17.1164,115.417 16.5,113.5C 18.4352,112.85 20.4352,112.517 22.5,112.5 Z"/></g>
<g><path style="opacity:1" fill="#b38767" d="M 80.5,113.5 C 78.3523,113.389 78.019,114.056 79.5,115.5C 77.6726,117.487 76.6726,119.821 76.5,122.5C 75.8333,123.167 75.1667,123.833 74.5,124.5C 74.0388,122.45 73.3721,120.45 72.5,118.5C 73.6302,117.378 74.2969,116.044 74.5,114.5C 75.3403,112.147 76.6736,110.147 78.5,108.5C 79.4584,108.047 80.2917,107.381 81,106.5C 83.1449,109.184 82.9783,111.517 80.5,113.5 Z"/></g>
<g><path style="opacity:1" fill="#1c1b1a" d="M 127.5,115.5 C 127.5,114.833 127.833,114.5 128.5,114.5C 129.833,114.5 131.167,114.5 132.5,114.5C 132.833,114.5 133.167,114.5 133.5,114.5C 133.833,114.5 134.167,114.5 134.5,114.5C 134.833,114.5 135.167,114.5 135.5,114.5C 138.453,114.15 140.787,115.15 142.5,117.5C 143.83,119.881 143.664,122.214 142,124.5C 141.667,122.5 141.333,120.5 141,118.5C 140.617,117.944 140.117,117.611 139.5,117.5C 139.082,116.778 138.416,116.278 137.5,116C 134.183,115.502 130.85,115.335 127.5,115.5 Z"/></g>
<g><path style="opacity:1" fill="#9b8e2c" d="M 30.5,111.5 C 30.9065,114.281 30.9065,117.281 30.5,120.5C 26.6025,123.301 25.6025,126.967 27.5,131.5C 25.8958,130.713 25.2291,129.38 25.5,127.5C 25.4618,122.284 26.4618,117.284 28.5,112.5C 29.1667,112.167 29.8333,111.833 30.5,111.5 Z"/></g>
<g><path style="opacity:1" fill="#5f571c" d="M 30.5,111.5 C 31.209,110.596 32.209,110.263 33.5,110.5C 32.9736,114.312 32.3069,117.979 31.5,121.5C 31.5,120.833 31.1667,120.5 30.5,120.5C 30.9065,117.281 30.9065,114.281 30.5,111.5 Z"/></g>
<g><path style="opacity:1" fill="#eedf52" d="M 45.5,149.5 C 39.7731,154.224 34.7731,159.558 30.5,165.5C 25.0475,173.314 23.0475,181.98 24.5,191.5C 19.9164,189.918 16.5831,186.918 14.5,182.5C 13.2876,170.938 16.6209,160.938 24.5,152.5C 33.4539,145.974 36.4539,137.307 33.5,126.5C 32.9154,120.429 35.582,117.095 41.5,116.5C 41.5,115.167 41.5,113.833 41.5,112.5C 42.8333,112.5 44.1667,112.5 45.5,112.5C 47.2572,118.764 48.5905,125.098 49.5,131.5C 49.5641,137.85 48.2308,143.85 45.5,149.5 Z"/></g>
<g><path style="opacity:1" fill="#2c2724" d="M 80.5,113.5 C 81.7054,114.686 83.0387,114.686 84.5,113.5C 84.8333,113.5 85.1667,113.5 85.5,113.5C 86.1667,113.5 86.8333,113.5 87.5,113.5C 90.1667,113.5 92.8333,113.5 95.5,113.5C 95.5,115.5 95.5,117.5 95.5,119.5C 95.5,120.833 95.5,122.167 95.5,123.5C 94.5269,121.052 94.1936,118.385 94.5,115.5C 91.8333,115.5 89.1667,115.5 86.5,115.5C 84.6682,114.282 83.6682,114.949 83.5,117.5C 83.1667,117.5 82.8333,117.5 82.5,117.5C 82.631,116.761 82.4643,116.094 82,115.5C 78.9553,117.719 77.7886,120.719 78.5,124.5C 77.8333,123.833 77.1667,123.167 76.5,122.5C 76.6726,119.821 77.6726,117.487 79.5,115.5C 78.019,114.056 78.3523,113.389 80.5,113.5 Z"/></g>
<g><path style="opacity:1" fill="#dbd9da" d="M 86.5,115.5 C 86.1788,117.048 85.1788,117.715 83.5,117.5C 83.6682,114.949 84.6682,114.282 86.5,115.5 Z"/></g>
<g><path style="opacity:1" fill="#6c6551" d="M 28.5,112.5 C 26.4618,117.284 25.4618,122.284 25.5,127.5C 24.8333,124.833 24.1667,122.167 23.5,119.5C 24.8284,118.493 25.8284,117.16 26.5,115.5C 26.3764,114.893 26.0431,114.56 25.5,114.5C 26.2905,113.599 27.2905,112.932 28.5,112.5 Z"/></g>
<g><path style="opacity:1" fill="#ecebeb" d="M 82.5,117.5 C 82.4045,120.692 83.0712,123.692 84.5,126.5C 82.1137,126.741 80.1137,126.075 78.5,124.5C 77.7886,120.719 78.9553,117.719 82,115.5C 82.4643,116.094 82.631,116.761 82.5,117.5 Z"/></g>
<g><path style="opacity:1" fill="#795f52" d="M 86.5,115.5 C 89.1667,115.5 91.8333,115.5 94.5,115.5C 94.1936,118.385 94.5269,121.052 95.5,123.5C 95.5858,124.496 95.2524,125.329 94.5,126C 92.8659,126.494 91.1992,126.66 89.5,126.5C 87.8333,126.5 86.1667,126.5 84.5,126.5C 83.0712,123.692 82.4045,120.692 82.5,117.5C 82.8333,117.5 83.1667,117.5 83.5,117.5C 85.1788,117.715 86.1788,117.048 86.5,115.5 Z"/></g>
<g><path style="opacity:1" fill="#615329" d="M 74.5,114.5 C 74.2969,116.044 73.6302,117.378 72.5,118.5C 73.3721,120.45 74.0388,122.45 74.5,124.5C 74.5905,127.152 73.9238,129.485 72.5,131.5C 72.8226,127.774 72.4892,124.107 71.5,120.5C 70.8165,120.863 70.1499,121.196 69.5,121.5C 70.4333,118.63 72.1,116.296 74.5,114.5 Z"/></g>
<g><path style="opacity:1" fill="#7b6256" d="M 127.5,115.5 C 130.85,115.335 134.183,115.502 137.5,116C 138.416,116.278 139.082,116.778 139.5,117.5C 138.833,120.833 138.167,124.167 137.5,127.5C 134.223,127.784 131.057,127.451 128,126.5C 127.501,122.848 127.335,119.182 127.5,115.5 Z"/></g>
<g><path style="opacity:1" fill="#eada50" d="M 30.5,120.5 C 31.1667,120.5 31.5,120.833 31.5,121.5C 32.038,123.117 32.3713,124.784 32.5,126.5C 32.4249,129.206 32.0916,131.873 31.5,134.5C 29.9699,133.789 28.6366,132.789 27.5,131.5C 25.6025,126.967 26.6025,123.301 30.5,120.5 Z"/></g>
<g><path style="opacity:1" fill="#888062" d="M 173.5,112.5 C 174.222,112.918 174.722,113.584 175,114.5C 175.815,119.352 175.648,124.019 174.5,128.5C 174.608,123.13 174.275,117.797 173.5,112.5 Z"/></g>
<g><path style="opacity:1" fill="#7c732c" d="M 58.5,102.5 C 58.0074,104.806 57.6741,107.139 57.5,109.5C 57.8936,116.496 58.2269,123.496 58.5,130.5C 57.1164,125.056 56.4497,119.389 56.5,113.5C 56.5,108.833 56.5,104.167 56.5,99.5C 57.3321,99.754 57.9987,100.754 58.5,102.5 Z"/></g>
<g><path style="opacity:1" fill="#9a8d21" d="M 72.5,131.5 C 71.7784,131.918 71.2784,132.584 71,133.5C 70.6667,132.167 70.3333,130.833 70,129.5C 69.8171,132.365 69.3171,135.031 68.5,137.5C 68.5,133.5 68.5,129.5 68.5,125.5C 68.8333,124.167 69.1667,122.833 69.5,121.5C 70.1499,121.196 70.8165,120.863 71.5,120.5C 72.4892,124.107 72.8226,127.774 72.5,131.5 Z"/></g>
<g><path style="opacity:1" fill="#353120" d="M 148.5,114.5 C 149.401,115.29 150.068,116.29 150.5,117.5C 150.5,117.833 150.5,118.167 150.5,118.5C 149.517,122.298 149.183,126.298 149.5,130.5C 149.672,131.492 149.338,132.158 148.5,132.5C 148.5,128.5 148.5,124.5 148.5,120.5C 148.5,118.5 148.5,116.5 148.5,114.5 Z"/></g>
<g><path style="opacity:1" fill="#968c66" d="M 162.5,125.5 C 164.335,126.122 165.502,127.456 166,129.5C 166.333,129.167 166.667,128.833 167,128.5C 167.611,131.721 168.778,134.721 170.5,137.5C 171.15,135.816 172.15,134.483 173.5,133.5C 172.801,136.573 171.801,139.573 170.5,142.5C 169.998,143.521 169.332,143.688 168.5,143C 169.285,140.557 169.119,138.057 168,135.5C 165.909,132.26 164.076,128.926 162.5,125.5 Z"/></g>
<g><path style="opacity:1" fill="#726925" d="M 69.5,121.5 C 69.1667,122.833 68.8333,124.167 68.5,125.5C 64.9142,129.534 62.2475,134.2 60.5,139.5C 58.7298,136.807 58.0632,133.807 58.5,130.5C 59.1635,132.042 59.8302,133.709 60.5,135.5C 61.2975,135.043 61.6309,134.376 61.5,133.5C 63.6585,129.19 66.3251,125.19 69.5,121.5 Z"/></g>
<g><path style="opacity:1" fill="#e6c3ac" d="M 148.5,120.5 C 148.5,124.5 148.5,128.5 148.5,132.5C 148.672,133.492 148.338,134.158 147.5,134.5C 147.649,133.448 147.483,132.448 147,131.5C 145.312,132.325 145.145,133.325 146.5,134.5C 141.806,136.258 137.806,135.258 134.5,131.5C 135.524,130.148 136.524,128.815 137.5,127.5C 138.167,124.167 138.833,120.833 139.5,117.5C 140.117,117.611 140.617,117.944 141,118.5C 141.333,120.5 141.667,122.5 142,124.5C 143.664,122.214 143.83,119.881 142.5,117.5C 142.811,116.522 143.478,115.855 144.5,115.5C 145.612,117.419 146.946,119.086 148.5,120.5 Z"/></g>
<g><path style="opacity:1" fill="#5c4f33" d="M 72.5,131.5 C 72.5,131.833 72.5,132.167 72.5,132.5C 68.1546,139.739 68.8213,146.406 74.5,152.5C 72.2843,151.797 70.451,150.464 69,148.5C 68.5357,149.094 68.369,149.761 68.5,150.5C 67.3376,146.313 67.3376,141.98 68.5,137.5C 69.3171,135.031 69.8171,132.365 70,129.5C 70.3333,130.833 70.6667,132.167 71,133.5C 71.2784,132.584 71.7784,131.918 72.5,131.5 Z"/></g>
<g><path style="opacity:1" fill="#efc5ab" d="M 76.5,122.5 C 77.1667,123.167 77.8333,123.833 78.5,124.5C 80.1137,126.075 82.1137,126.741 84.5,126.5C 86.1667,126.5 87.8333,126.5 89.5,126.5C 88.3915,127.29 87.0581,127.79 85.5,128C 86.5156,128.519 87.1822,129.353 87.5,130.5C 85.5322,135.431 81.8655,137.264 76.5,136C 75.8971,133.929 74.5638,132.762 72.5,132.5C 72.5,132.167 72.5,131.833 72.5,131.5C 73.9238,129.485 74.5905,127.152 74.5,124.5C 75.1667,123.833 75.8333,123.167 76.5,122.5 Z"/></g>
<g><path style="opacity:1" fill="#655a28" d="M 149.5,130.5 C 151.379,133.856 151.879,137.523 151,141.5C 150.667,139.167 150.333,136.833 150,134.5C 149.61,137.104 148.776,139.438 147.5,141.5C 147.5,139.167 147.5,136.833 147.5,134.5C 148.338,134.158 148.672,133.492 148.5,132.5C 149.338,132.158 149.672,131.492 149.5,130.5 Z"/></g>
<g><path style="opacity:1" fill="#6b6335" d="M 150.5,117.5 C 152.53,121.917 154.197,126.583 155.5,131.5C 156.95,130.15 157.617,128.484 157.5,126.5C 158.167,126.167 158.833,125.833 159.5,125.5C 160.947,129.78 160.614,133.947 158.5,138C 159.391,140.279 160.391,142.446 161.5,144.5C 159.549,143.284 158.049,141.618 157,139.5C 156.167,140.333 155.333,141.167 154.5,142C 157.626,144.45 159.959,147.45 161.5,151C 159.014,148.204 156.014,145.537 152.5,143C 155.356,140.152 157.356,136.819 158.5,133C 158.333,132.167 158.167,131.333 158,130.5C 156.66,133.202 155.327,135.869 154,138.5C 153.937,131.614 152.77,124.947 150.5,118.5C 150.5,118.167 150.5,117.833 150.5,117.5 Z"/></g>
<g><path style="opacity:1" fill="#281f1d" d="M 121.5,147.5 C 121.896,144.956 121.229,142.789 119.5,141C 116.833,140.833 114.167,140.667 111.5,140.5C 108.41,140.522 105.743,141.188 103.5,142.5C 102.152,141.473 101.652,140.14 102,138.5C 109.079,139.48 116.245,139.813 123.5,139.5C 123.435,142.428 122.768,145.095 121.5,147.5 Z"/></g>
<g><path style="opacity:1" fill="#a2432d" d="M 121.5,147.5 C 121.167,147.5 120.833,147.5 120.5,147.5C 120.126,144.112 118.126,142.278 114.5,142C 111.118,141.176 107.784,141.343 104.5,142.5C 105.127,143.417 105.461,144.417 105.5,145.5C 104.094,145.027 103.427,144.027 103.5,142.5C 105.743,141.188 108.41,140.522 111.5,140.5C 114.167,140.667 116.833,140.833 119.5,141C 121.229,142.789 121.896,144.956 121.5,147.5 Z"/></g>
<g><path style="opacity:1" fill="#9e9570" d="M 27.5,131.5 C 28.6366,132.789 29.9699,133.789 31.5,134.5C 30.1636,142.194 25.4969,146.194 17.5,146.5C 20.4092,144.568 23.5759,142.901 27,141.5C 28.8203,138.247 28.9869,134.913 27.5,131.5 Z"/></g>
<g><path style="opacity:1" fill="#da6b50" d="M 120.5,147.5 C 119.145,150.518 116.812,151.851 113.5,151.5C 111.62,151.771 110.287,151.104 109.5,149.5C 108.5,147.833 107.167,146.5 105.5,145.5C 105.461,144.417 105.127,143.417 104.5,142.5C 107.784,141.343 111.118,141.176 114.5,142C 118.126,142.278 120.126,144.112 120.5,147.5 Z"/></g>
<g><path style="opacity:1" fill="#988b1e" d="M 53.5,99.5 C 54.5,99.5 55.5,99.5 56.5,99.5C 56.5,104.167 56.5,108.833 56.5,113.5C 55.5655,112.432 55.2322,111.099 55.5,109.5C 54.5,109.5 53.5,109.5 52.5,109.5C 52.6495,110.552 52.4828,111.552 52,112.5C 49.9471,113.267 48.4471,114.6 47.5,116.5C 49.4643,121.422 51.1309,126.422 52.5,131.5C 53.0347,138.373 52.2014,145.04 50,151.5C 49.3333,156.5 49.3333,161.5 50,166.5C 50.3333,162.5 50.6667,158.5 51,154.5C 51.6886,160.139 53.1886,165.472 55.5,170.5C 54.8333,172.5 54.1667,174.5 53.5,176.5C 51.5,176.5 50.5,177.5 50.5,179.5C 49.4154,181.587 47.7488,182.92 45.5,183.5C 45.8526,179.087 46.6859,174.754 48,170.5C 48.6667,166.5 48.6667,162.5 48,158.5C 45.5837,162.301 44.0837,166.301 43.5,170.5C 41.9731,170.427 40.9731,171.094 40.5,172.5C 37.5278,174.778 35.8611,177.778 35.5,181.5C 33.9328,182.681 33.0995,184.347 33,186.5C 32.5017,189.817 32.335,193.15 32.5,196.5C 31.5,196.5 30.5,196.5 29.5,196.5C 29.631,195.761 29.4643,195.094 29,194.5C 27.1222,193.947 25.6222,192.947 24.5,191.5C 23.0475,181.98 25.0475,173.314 30.5,165.5C 36.2269,160.776 41.2269,155.442 45.5,149.5C 48.2308,143.85 49.5641,137.85 49.5,131.5C 48.5905,125.098 47.2572,118.764 45.5,112.5C 44.1667,112.5 42.8333,112.5 41.5,112.5C 41.5,113.833 41.5,115.167 41.5,116.5C 35.582,117.095 32.9154,120.429 33.5,126.5C 33.1667,126.5 32.8333,126.5 32.5,126.5C 32.3713,124.784 32.038,123.117 31.5,121.5C 32.3069,117.979 32.9736,114.312 33.5,110.5C 33.9731,109.094 34.9731,108.427 36.5,108.5C 37.4822,109.141 38.4822,109.807 39.5,110.5C 41.4496,109.628 43.4496,108.961 45.5,108.5C 48.1379,105.526 50.8046,102.526 53.5,99.5 Z"/></g>
<g><path style="opacity:1" fill="#ebdb51" d="M 21.5,151.5 C 14.0433,157.072 11.0433,164.405 12.5,173.5C 12.1667,173.5 11.8333,173.5 11.5,173.5C 10.2498,171.068 8.74983,168.734 7,166.5C 6.61239,163.151 6.77906,159.817 7.5,156.5C 7.32842,155.508 7.66175,154.842 8.5,154.5C 10.8333,152.833 12.8333,150.833 14.5,148.5C 16.0269,148.573 17.0269,147.906 17.5,146.5C 25.4969,146.194 30.1636,142.194 31.5,134.5C 32.2216,134.082 32.7216,133.416 33,132.5C 33.8407,136.12 33.174,139.454 31,142.5C 27.4721,145.169 24.3054,148.169 21.5,151.5 Z"/></g>
<g><path style="opacity:1" fill="#5b4940" d="M 105.5,145.5 C 107.167,146.5 108.5,147.833 109.5,149.5C 107.167,149.167 105.833,147.833 105.5,145.5 Z"/></g>
<g><path style="opacity:1" fill="#aba484" d="M 17.5,146.5 C 17.0269,147.906 16.0269,148.573 14.5,148.5C 14.9731,147.094 15.9731,146.427 17.5,146.5 Z"/></g>
<g><path style="opacity:1" fill="#6b6323" d="M 32.5,126.5 C 32.8333,126.5 33.1667,126.5 33.5,126.5C 36.4539,137.307 33.4539,145.974 24.5,152.5C 23.609,151.89 22.609,151.557 21.5,151.5C 24.3054,148.169 27.4721,145.169 31,142.5C 33.174,139.454 33.8407,136.12 33,132.5C 32.7216,133.416 32.2216,134.082 31.5,134.5C 32.0916,131.873 32.4249,129.206 32.5,126.5 Z"/></g>
<g><path style="opacity:1" fill="#49422f" d="M 147.5,141.5 C 147.982,144.831 146.982,147.497 144.5,149.5C 145.512,146.743 146.512,144.076 147.5,141.5 Z"/></g>
<g><path style="opacity:1" fill="#b0a885" d="M 14.5,148.5 C 12.8333,150.833 10.8333,152.833 8.5,154.5C 9.5,151.5 11.5,149.5 14.5,148.5 Z"/></g>
<g><path style="opacity:1" fill="#5b443b" d="M 120.5,147.5 C 120.833,147.5 121.167,147.5 121.5,147.5C 120.28,152.098 117.613,153.432 113.5,151.5C 116.812,151.851 119.145,150.518 120.5,147.5 Z"/></g>
<g><path style="opacity:1" fill="#9e9120" d="M 146.5,155.5 C 146.5,157.5 146.5,159.5 146.5,161.5C 145.71,160.391 145.21,159.058 145,157.5C 144.161,158.624 142.994,159.291 141.5,159.5C 139.97,159.36 138.97,158.693 138.5,157.5C 139.812,155.521 141.479,153.855 143.5,152.5C 144.288,153.77 145.288,154.77 146.5,155.5 Z"/></g>
<g><path style="opacity:1" fill="#eede51" d="M 148.5,150.5 C 153.587,152.661 154.587,155.995 151.5,160.5C 151.167,161.167 150.833,161.833 150.5,162.5C 149.609,163.11 148.609,163.443 147.5,163.5C 147.167,162.833 146.833,162.167 146.5,161.5C 146.5,159.5 146.5,157.5 146.5,155.5C 146.893,153.716 147.559,152.05 148.5,150.5 Z"/></g>
<g><path style="opacity:1" fill="#6f651d" d="M 45.5,149.5 C 41.2269,155.442 36.2269,160.776 30.5,165.5C 34.7731,159.558 39.7731,154.224 45.5,149.5 Z"/></g>
<g><path style="opacity:1" fill="#91841c" d="M 74.5,152.5 C 77.7398,155.967 80.2398,159.967 82,164.5C 82.5356,162.433 82.0356,160.599 80.5,159C 81.7441,158.544 82.5774,159.044 83,160.5C 84.0159,166.696 82.5159,167.696 78.5,163.5C 76.1182,161.785 74.1182,159.785 72.5,157.5C 71.4161,154.996 70.0828,152.663 68.5,150.5C 68.369,149.761 68.5357,149.094 69,148.5C 70.451,150.464 72.2843,151.797 74.5,152.5 Z"/></g>
<g><path style="opacity:1" fill="#534a2a" d="M 148.5,150.5 C 147.559,152.05 146.893,153.716 146.5,155.5C 145.288,154.77 144.288,153.77 143.5,152.5C 141.479,153.855 139.812,155.521 138.5,157.5C 137.609,158.11 136.609,158.443 135.5,158.5C 138.167,155.167 141.167,152.167 144.5,149.5C 144.461,150.756 144.961,151.756 146,152.5C 146.748,150.668 147.748,149.001 149,147.5C 149.47,148.577 149.303,149.577 148.5,150.5 Z"/></g>
<g><path style="opacity:1" fill="#4e4921" d="M 68.5,150.5 C 70.0828,152.663 71.4161,154.996 72.5,157.5C 69.8881,155.948 68.5548,153.614 68.5,150.5 Z"/></g>
<g><path style="opacity:1" fill="#958820" d="M 150.5,118.5 C 152.77,124.947 153.937,131.614 154,138.5C 155.327,135.869 156.66,133.202 158,130.5C 158.167,131.333 158.333,132.167 158.5,133C 157.356,136.819 155.356,140.152 152.5,143C 156.014,145.537 159.014,148.204 161.5,151C 159.959,147.45 157.626,144.45 154.5,142C 155.333,141.167 156.167,140.333 157,139.5C 158.049,141.618 159.549,143.284 161.5,144.5C 163.964,146.57 166.631,148.404 169.5,150C 171.141,151.129 172.141,152.629 172.5,154.5C 173.218,156.137 173.384,157.803 173,159.5C 171.26,157.046 169.093,155.546 166.5,155C 170.358,161.42 171.358,168.253 169.5,175.5C 167.83,180.692 166.496,180.359 165.5,174.5C 165.043,173.702 164.376,173.369 163.5,173.5C 162.833,172.5 162.167,171.5 161.5,170.5C 161.5,169.833 161.167,169.5 160.5,169.5C 160.086,167.319 159.919,164.985 160,162.5C 158.59,161.213 157.09,160.046 155.5,159C 156.451,158.282 156.617,157.449 156,156.5C 154.629,158.041 153.129,159.375 151.5,160.5C 154.587,155.995 153.587,152.661 148.5,150.5C 149.303,149.577 149.47,148.577 149,147.5C 147.748,149.001 146.748,150.668 146,152.5C 144.961,151.756 144.461,150.756 144.5,149.5C 146.982,147.497 147.982,144.831 147.5,141.5C 148.776,139.438 149.61,137.104 150,134.5C 150.333,136.833 150.667,139.167 151,141.5C 151.879,137.523 151.379,133.856 149.5,130.5C 149.183,126.298 149.517,122.298 150.5,118.5 Z"/></g>
<g><path style="opacity:1" fill="#897d21" d="M 21.5,151.5 C 22.609,151.557 23.609,151.89 24.5,152.5C 16.6209,160.938 13.2876,170.938 14.5,182.5C 14.1667,182.5 13.8333,182.5 13.5,182.5C 13.5,182.167 13.5,181.833 13.5,181.5C 13.8064,178.615 13.4731,175.948 12.5,173.5C 11.0433,164.405 14.0433,157.072 21.5,151.5 Z"/></g>
<g><path style="opacity:1" fill="#5f5629" d="M 74.5,152.5 C 80.0101,156.089 85.6767,159.422 91.5,162.5C 89.323,162.414 87.323,161.747 85.5,160.5C 84.52,163.086 84.1866,165.753 84.5,168.5C 84.1667,168.5 83.8333,168.5 83.5,168.5C 83.1667,168.5 82.8333,168.5 82.5,168.5C 82.1667,168.5 81.8333,168.5 81.5,168.5C 80.2485,166.999 79.2485,165.332 78.5,163.5C 82.5159,167.696 84.0159,166.696 83,160.5C 82.5774,159.044 81.7441,158.544 80.5,159C 82.0356,160.599 82.5356,162.433 82,164.5C 80.2398,159.967 77.7398,155.967 74.5,152.5 Z"/></g>
<g><path style="opacity:1" fill="#6e6426" d="M 138.5,157.5 C 138.97,158.693 139.97,159.36 141.5,159.5C 142.994,159.291 144.161,158.624 145,157.5C 145.21,159.058 145.71,160.391 146.5,161.5C 146.833,162.167 147.167,162.833 147.5,163.5C 147.44,164.043 147.107,164.376 146.5,164.5C 145.278,162.022 143.278,161.022 140.5,161.5C 140.132,166.557 139.465,171.557 138.5,176.5C 137.732,174.285 137.065,171.952 136.5,169.5C 135.833,169.5 135.167,169.5 134.5,169.5C 134.585,166.351 133.585,163.684 131.5,161.5C 132.262,159.738 133.596,158.738 135.5,158.5C 136.609,158.443 137.609,158.11 138.5,157.5 Z"/></g>
<g><path style="opacity:1" fill="#9c8e1c" d="M 136.5,169.5 C 135.9,166.702 134.9,164.035 133.5,161.5C 133.833,160.5 134.5,159.833 135.5,159.5C 140.003,162.362 140.337,165.696 136.5,169.5 Z"/></g>
<g><path style="opacity:1" fill="#71661c" d="M 160.5,169.5 C 159.833,169.5 159.167,169.5 158.5,169.5C 158.5,167.167 158.5,164.833 158.5,162.5C 155.259,161.866 152.592,161.866 150.5,162.5C 150.833,161.833 151.167,161.167 151.5,160.5C 153.129,159.375 154.629,158.041 156,156.5C 156.617,157.449 156.451,158.282 155.5,159C 157.09,160.046 158.59,161.213 160,162.5C 159.919,164.985 160.086,167.319 160.5,169.5 Z"/></g>
<g><path style="opacity:1" fill="#6c6320" d="M 52.5,131.5 C 53.9256,133.679 54.5922,136.179 54.5,139C 51.6468,148.409 51.9802,157.576 55.5,166.5C 56.6005,167.605 57.2671,168.938 57.5,170.5C 56.8333,170.5 56.1667,170.5 55.5,170.5C 53.1886,165.472 51.6886,160.139 51,154.5C 50.6667,158.5 50.3333,162.5 50,166.5C 49.3333,161.5 49.3333,156.5 50,151.5C 52.2014,145.04 53.0347,138.373 52.5,131.5 Z"/></g>
<g><path style="opacity:1" fill="#b9b293" d="M 7.5,156.5 C 6.77906,159.817 6.61239,163.151 7,166.5C 8.74983,168.734 10.2498,171.068 11.5,173.5C 5.25684,168.945 3.92351,163.278 7.5,156.5 Z"/></g>
<g><path style="opacity:1" fill="#998b1d" d="M 91.5,162.5 C 91.7381,166.234 92.9047,166.9 95,164.5C 96.7659,165.233 98.5992,165.567 100.5,165.5C 101.551,166.222 102.218,167.222 102.5,168.5C 101.491,172.178 99.6572,175.511 97,178.5C 96.6174,177.944 96.1174,177.611 95.5,177.5C 94.9552,174.187 94.4552,170.854 94,167.5C 93.4954,169.518 92.9954,171.518 92.5,173.5C 92.3404,175.153 91.6737,176.486 90.5,177.5C 89.4246,178.562 88.4246,178.562 87.5,177.5C 86.6493,174.422 85.6493,171.422 84.5,168.5C 84.1866,165.753 84.52,163.086 85.5,160.5C 87.323,161.747 89.323,162.414 91.5,162.5 Z"/></g>
<g><path style="opacity:1" fill="#95881b" d="M 147.5,163.5 C 148.609,163.443 149.609,163.11 150.5,162.5C 152.592,161.866 155.259,161.866 158.5,162.5C 158.5,164.833 158.5,167.167 158.5,169.5C 156.656,171.195 155.323,173.195 154.5,175.5C 153.952,172.614 152.285,170.614 149.5,169.5C 147.394,172.286 145.727,175.286 144.5,178.5C 142.297,178.396 140.297,177.73 138.5,176.5C 139.465,171.557 140.132,166.557 140.5,161.5C 143.278,161.022 145.278,162.022 146.5,164.5C 147.107,164.376 147.44,164.043 147.5,163.5 Z"/></g>
<g><path style="opacity:1" fill="#655c29" d="M 172.5,154.5 C 173.79,155.058 174.623,156.058 175,157.5C 177.426,162.975 176.926,167.975 173.5,172.5C 175.371,167.65 174.538,163.317 171,159.5C 170.846,162.063 171.346,164.563 172.5,167C 171.678,169.434 171.344,171.934 171.5,174.5C 171.158,175.338 170.492,175.672 169.5,175.5C 171.358,168.253 170.358,161.42 166.5,155C 169.093,155.546 171.26,157.046 173,159.5C 173.384,157.803 173.218,156.137 172.5,154.5 Z"/></g>
<g><path style="opacity:1" fill="#514923" d="M 91.5,162.5 C 94.7458,163.054 97.7458,164.054 100.5,165.5C 98.5992,165.567 96.7659,165.233 95,164.5C 92.9047,166.9 91.7381,166.234 91.5,162.5 Z"/></g>
<g><path style="opacity:1" fill="#93861f" d="M 131.5,161.5 C 133.585,163.684 134.585,166.351 134.5,169.5C 134.611,174.611 132.611,178.611 128.5,181.5C 127.51,175.69 127.177,169.69 127.5,163.5C 128.514,162.326 129.847,161.66 131.5,161.5 Z"/></g>
<g><path style="opacity:1" fill="#97891d" d="M 173.5,172.5 C 173.672,173.492 173.338,174.158 172.5,174.5C 172.167,174.5 171.833,174.5 171.5,174.5C 171.344,171.934 171.678,169.434 172.5,167C 171.346,164.563 170.846,162.063 171,159.5C 174.538,163.317 175.371,167.65 173.5,172.5 Z"/></g>
<g><path style="opacity:1" fill="#e9d950" d="M 45.5,183.5 C 45.5,184.167 45.1667,184.5 44.5,184.5C 43.5416,184.953 42.7083,185.619 42,186.5C 41.8333,185.167 41.6667,183.833 41.5,182.5C 42.1699,178.49 42.8366,174.49 43.5,170.5C 44.0837,166.301 45.5837,162.301 48,158.5C 48.6667,162.5 48.6667,166.5 48,170.5C 46.6859,174.754 45.8526,179.087 45.5,183.5 Z"/></g>
<g><path style="opacity:1" fill="#58512d" d="M 127.5,163.5 C 127.177,169.69 127.51,175.69 128.5,181.5C 128.44,182.043 128.107,182.376 127.5,182.5C 126.047,180.815 124.714,179.149 123.5,177.5C 124.15,177.804 124.817,178.137 125.5,178.5C 126.492,174.217 126.826,169.884 126.5,165.5C 122.202,166.2 117.869,166.533 113.5,166.5C 113.294,170.898 113.627,175.232 114.5,179.5C 113.348,178.375 112.348,178.375 111.5,179.5C 110.833,179.5 110.167,179.5 109.5,179.5C 111.28,175.404 111.946,171.071 111.5,166.5C 108.302,165.964 105.635,166.631 103.5,168.5C 103.167,168.5 102.833,168.5 102.5,168.5C 102.218,167.222 101.551,166.222 100.5,165.5C 109.6,165.828 118.6,165.162 127.5,163.5 Z"/></g>
<g><path style="opacity:1" fill="#9a8d1b" d="M 60.5,195.5 C 58.9317,196.473 57.265,196.64 55.5,196C 57.1927,193.066 58.1927,189.899 58.5,186.5C 59.6497,181.684 59.8163,176.684 59,171.5C 58.6174,170.944 58.1174,170.611 57.5,170.5C 57.2671,168.938 56.6005,167.605 55.5,166.5C 56.4959,166.414 57.3292,166.748 58,167.5C 58.3333,165.833 58.6667,164.167 59,162.5C 64.4428,173.257 64.9428,184.257 60.5,195.5 Z"/></g>
<g><path style="opacity:1" fill="#9a8d1a" d="M 109.5,179.5 C 108.597,182.925 107.097,183.258 105,180.5C 103.734,176.605 103.234,172.605 103.5,168.5C 105.635,166.631 108.302,165.964 111.5,166.5C 111.946,171.071 111.28,175.404 109.5,179.5 Z"/></g>
<g><path style="opacity:1" fill="#9a8d21" d="M 123.5,177.5 C 121.29,177.894 119.957,179.227 119.5,181.5C 118.5,181.5 117.5,181.5 116.5,181.5C 115.167,181.5 114.5,180.833 114.5,179.5C 113.627,175.232 113.294,170.898 113.5,166.5C 117.869,166.533 122.202,166.2 126.5,165.5C 126.826,169.884 126.492,174.217 125.5,178.5C 124.817,178.137 124.15,177.804 123.5,177.5 Z"/></g>
<g><path style="opacity:1" fill="#e5d54b" d="M 154.5,175.5 C 153.833,175.5 153.5,175.833 153.5,176.5C 152.236,178.27 150.736,179.937 149,181.5C 148.617,180.944 148.117,180.611 147.5,180.5C 146.29,180.068 145.29,179.401 144.5,178.5C 145.727,175.286 147.394,172.286 149.5,169.5C 152.285,170.614 153.952,172.614 154.5,175.5 Z"/></g>
<g><path style="opacity:1" fill="#56523b" d="M 95.5,177.5 C 94.5,176.167 93.5,174.833 92.5,173.5C 92.9954,171.518 93.4954,169.518 94,167.5C 94.4552,170.854 94.9552,174.187 95.5,177.5 Z"/></g>
<g><path style="opacity:1" fill="#7a724e" d="M 102.5,168.5 C 102.833,168.5 103.167,168.5 103.5,168.5C 103.234,172.605 103.734,176.605 105,180.5C 107.097,183.258 108.597,182.925 109.5,179.5C 110.167,179.5 110.833,179.5 111.5,179.5C 109.824,181.767 109.157,184.1 109.5,186.5C 104.774,183.932 102.274,179.932 102,174.5C 100.5,176.833 99,179.167 97.5,181.5C 96.2949,180.423 95.6282,179.09 95.5,177.5C 96.1174,177.611 96.6174,177.944 97,178.5C 99.6572,175.511 101.491,172.178 102.5,168.5 Z"/></g>
<g><path style="opacity:1" fill="#c3bdad" d="M 11.5,173.5 C 11.8333,173.5 12.1667,173.5 12.5,173.5C 13.4731,175.948 13.8064,178.615 13.5,181.5C 12.7451,178.947 12.0784,176.28 11.5,173.5 Z"/></g>
<g><path style="opacity:1" fill="#ada68a" d="M 43.5,170.5 C 42.8366,174.49 42.1699,178.49 41.5,182.5C 41.6667,183.833 41.8333,185.167 42,186.5C 42.7083,185.619 43.5416,184.953 44.5,184.5C 43.9148,186.922 42.4148,188.589 40,189.5C 39.5781,184.597 40.0781,179.764 41.5,175C 41.472,173.93 41.1386,173.097 40.5,172.5C 40.9731,171.094 41.9731,170.427 43.5,170.5 Z"/></g>
<g><path style="opacity:1" fill="#968f75" d="M 55.5,170.5 C 56.1667,170.5 56.8333,170.5 57.5,170.5C 58.1174,170.611 58.6174,170.944 59,171.5C 59.8163,176.684 59.6497,181.684 58.5,186.5C 58.6658,181.821 58.4992,177.155 58,172.5C 57.6667,172.167 57.3333,171.833 57,171.5C 56.3028,173.584 55.1361,175.251 53.5,176.5C 54.1667,174.5 54.8333,172.5 55.5,170.5 Z"/></g>
<g><path style="opacity:1" fill="#aca587" d="M 81.5,168.5 C 81.8333,168.5 82.1667,168.5 82.5,168.5C 82.2288,175.373 79.5621,181.039 74.5,185.5C 78.1849,180.454 80.5182,174.788 81.5,168.5 Z"/></g>
<g><path style="opacity:1" fill="#988e5f" d="M 158.5,169.5 C 159.167,169.5 159.833,169.5 160.5,169.5C 161.167,169.5 161.5,169.833 161.5,170.5C 160.325,170.281 159.325,170.614 158.5,171.5C 157,174.5 155.5,177.5 154,180.5C 153.4,183.095 153.9,185.429 155.5,187.5C 154.542,187.047 153.708,186.381 153,185.5C 152.505,182.469 152.671,179.469 153.5,176.5C 153.5,175.833 153.833,175.5 154.5,175.5C 155.323,173.195 156.656,171.195 158.5,169.5 Z"/></g>
<g><path style="opacity:1" fill="#978e69" d="M 40.5,172.5 C 39.0834,175.669 37.4168,178.669 35.5,181.5C 35.8611,177.778 37.5278,174.778 40.5,172.5 Z"/></g>
<g><path style="opacity:1" fill="#c2beae" d="M 53.5,176.5 C 52.8333,177.833 51.8333,178.833 50.5,179.5C 50.5,177.5 51.5,176.5 53.5,176.5 Z"/></g>
<g><path style="opacity:1" fill="#7d7860" d="M 163.5,173.5 C 164.376,173.369 165.043,173.702 165.5,174.5C 166.496,180.359 167.83,180.692 169.5,175.5C 170.492,175.672 171.158,175.338 171.5,174.5C 171.833,174.5 172.167,174.5 172.5,174.5C 171.428,177.63 169.594,180.296 167,182.5C 165.982,179.412 164.815,176.412 163.5,173.5 Z"/></g>
<g><path style="opacity:1" fill="#ede8ea" d="M 134.5,169.5 C 135.167,169.5 135.833,169.5 136.5,169.5C 137.065,171.952 137.732,174.285 138.5,176.5C 138.5,177.167 138.5,177.833 138.5,178.5C 137.692,180.22 136.692,181.887 135.5,183.5C 133.933,184.681 133.099,186.347 133,188.5C 132.346,187.304 131.846,187.304 131.5,188.5C 132.63,189.622 133.297,190.956 133.5,192.5C 128.957,188.474 124.291,184.808 119.5,181.5C 119.957,179.227 121.29,177.894 123.5,177.5C 124.714,179.149 126.047,180.815 127.5,182.5C 128.107,182.376 128.44,182.043 128.5,181.5C 132.611,178.611 134.611,174.611 134.5,169.5 Z"/></g>
<g><path style="opacity:1" fill="#988b1e" d="M 153.5,176.5 C 152.671,179.469 152.505,182.469 153,185.5C 153.708,186.381 154.542,187.047 155.5,187.5C 155.167,189.5 154.833,191.5 154.5,193.5C 152.738,194.262 151.738,195.596 151.5,197.5C 149.704,198.793 148.037,200.293 146.5,202C 145.251,202.74 144.251,202.573 143.5,201.5C 143.5,201.167 143.5,200.833 143.5,200.5C 145.689,196.631 148.022,192.797 150.5,189C 149.831,187.153 148.497,185.986 146.5,185.5C 144.457,188.011 142.791,190.678 141.5,193.5C 140.732,194.263 140.232,195.263 140,196.5C 139.292,195.619 138.458,194.953 137.5,194.5C 134.365,191.364 133.698,187.697 135.5,183.5C 136.692,181.887 137.692,180.22 138.5,178.5C 141.138,179.492 143.805,180.492 146.5,181.5C 147.107,181.376 147.44,181.043 147.5,180.5C 148.117,180.611 148.617,180.944 149,181.5C 150.736,179.937 152.236,178.27 153.5,176.5 Z"/></g>
<g><path style="opacity:1" fill="#655c1f" d="M 138.5,176.5 C 140.297,177.73 142.297,178.396 144.5,178.5C 145.29,179.401 146.29,180.068 147.5,180.5C 147.44,181.043 147.107,181.376 146.5,181.5C 143.805,180.492 141.138,179.492 138.5,178.5C 138.5,177.833 138.5,177.167 138.5,176.5 Z"/></g>
<g><path style="opacity:1" fill="#948b69" d="M 83.5,168.5 C 83.8333,168.5 84.1667,168.5 84.5,168.5C 85.6493,171.422 86.6493,174.422 87.5,177.5C 88.4246,178.562 89.4246,178.562 90.5,177.5C 89.8641,180.106 89.8641,182.606 90.5,185C 89.6683,185.688 89.0016,185.521 88.5,184.5C 86.2135,179.352 84.5468,174.019 83.5,168.5 Z"/></g>
<g><path style="opacity:1" fill="#978f6c" d="M 35.5,181.5 C 33.6042,187.447 33.1042,193.447 34,199.5C 32.5913,198.219 31.0913,197.219 29.5,196.5C 30.5,196.5 31.5,196.5 32.5,196.5C 32.335,193.15 32.5017,189.817 33,186.5C 33.0995,184.347 33.9328,182.681 35.5,181.5 Z"/></g>
<g><path style="opacity:1" fill="#ece4ea" d="M 129.5,194.5 C 128.432,195.434 127.099,195.768 125.5,195.5C 124.504,194.335 123.171,193.668 121.5,193.5C 119.218,194.223 116.884,194.557 114.5,194.5C 114.795,192.265 114.461,190.265 113.5,188.5C 113.5,187.833 113.833,187.5 114.5,187.5C 115.93,187.579 117.264,187.246 118.5,186.5C 122.728,188.442 126.394,191.109 129.5,194.5 Z"/></g>
<g><path style="opacity:1" fill="#eada4f" d="M 143.5,200.5 C 142.061,198.412 141.394,196.079 141.5,193.5C 142.791,190.678 144.457,188.011 146.5,185.5C 148.497,185.986 149.831,187.153 150.5,189C 148.022,192.797 145.689,196.631 143.5,200.5 Z"/></g>
<g><path style="opacity:1" fill="#77725f" d="M 135.5,183.5 C 133.698,187.697 134.365,191.364 137.5,194.5C 135.938,194.267 134.605,193.6 133.5,192.5C 133.297,190.956 132.63,189.622 131.5,188.5C 131.846,187.304 132.346,187.304 133,188.5C 133.099,186.347 133.933,184.681 135.5,183.5 Z"/></g>
<g><path style="opacity:1" fill="#d1cec4" d="M 155.5,187.5 C 156.794,189.68 156.461,191.68 154.5,193.5C 154.833,191.5 155.167,189.5 155.5,187.5 Z"/></g>
<g><path style="opacity:1" fill="#c4beb7" d="M 74.5,185.5 C 72.7671,189.565 69.7671,192.232 65.5,193.5C 68.4744,190.862 71.4744,188.195 74.5,185.5 Z"/></g>
<g><path style="opacity:1" fill="#b0a77d" d="M 13.5,182.5 C 13.8333,182.5 14.1667,182.5 14.5,182.5C 16.5831,186.918 19.9164,189.918 24.5,191.5C 25.6222,192.947 27.1222,193.947 29,194.5C 29.4643,195.094 29.631,195.761 29.5,196.5C 25.7405,194.592 22.0738,192.425 18.5,190C 15.8002,188.143 14.1335,185.643 13.5,182.5 Z"/></g>
<g><path style="opacity:1" fill="#efe7ed" d="M 133.5,192.5 C 134.605,193.6 135.938,194.267 137.5,194.5C 138.471,196.483 139.471,198.483 140.5,200.5C 134.6,200.934 132.266,198.267 133.5,192.5 Z"/></g>
<g><path style="opacity:1" fill="#978497" d="M 113.5,188.5 C 114.461,190.265 114.795,192.265 114.5,194.5C 116.884,194.557 119.218,194.223 121.5,193.5C 123.171,193.668 124.504,194.335 125.5,195.5C 126.091,196.151 126.757,196.818 127.5,197.5C 127.376,198.107 127.043,198.44 126.5,198.5C 122.094,197.796 117.76,196.796 113.5,195.5C 113.5,193.167 113.5,190.833 113.5,188.5 Z"/></g>
<g><path style="opacity:1" fill="#65594e" d="M 130.5,198.5 C 128.938,198.733 127.605,199.4 126.5,200.5C 126.5,199.833 126.5,199.167 126.5,198.5C 127.043,198.44 127.376,198.107 127.5,197.5C 126.757,196.818 126.091,196.151 125.5,195.5C 127.099,195.768 128.432,195.434 129.5,194.5C 130.251,193.427 131.251,193.26 132.5,194C 130.893,195.049 130.227,196.549 130.5,198.5 Z"/></g>
<g><path style="opacity:1" fill="#beb9aa" d="M 154.5,193.5 C 154.262,195.404 153.262,196.738 151.5,197.5C 151.738,195.596 152.738,194.262 154.5,193.5 Z"/></g>
<g><path style="opacity:1" fill="#968c66" d="M 58.5,186.5 C 58.1927,189.899 57.1927,193.066 55.5,196C 57.265,196.64 58.9317,196.473 60.5,195.5C 62.0495,194.559 63.7162,193.893 65.5,193.5C 61.9385,197.077 57.6052,198.577 52.5,198C 54.6719,194.153 56.6719,190.319 58.5,186.5 Z"/></g>
<g><path style="opacity:1" fill="#e3dddf" d="M 113.5,195.5 C 117.76,196.796 122.094,197.796 126.5,198.5C 126.5,199.167 126.5,199.833 126.5,200.5C 125.29,200.932 124.29,201.599 123.5,202.5C 121.5,202.5 119.5,202.5 117.5,202.5C 117.737,203.791 117.404,204.791 116.5,205.5C 116.08,201.993 115.08,198.659 113.5,195.5 Z"/></g>
<g><path style="opacity:1" fill="#716a5d" d="M 141.5,193.5 C 141.394,196.079 142.061,198.412 143.5,200.5C 143.5,200.833 143.5,201.167 143.5,201.5C 142.609,200.89 141.609,200.557 140.5,200.5C 139.471,198.483 138.471,196.483 137.5,194.5C 138.458,194.953 139.292,195.619 140,196.5C 140.232,195.263 140.732,194.263 141.5,193.5 Z"/></g>
<g><path style="opacity:1" fill="#998599" d="M 116.5,181.5 C 117.5,181.5 118.5,181.5 119.5,181.5C 124.291,184.808 128.957,188.474 133.5,192.5C 132.266,198.267 134.6,200.934 140.5,200.5C 139.136,203.668 138.303,207.001 138,210.5C 135.6,208.271 133.433,205.937 131.5,203.5C 132.261,201.741 131.928,200.074 130.5,198.5C 130.227,196.549 130.893,195.049 132.5,194C 131.251,193.26 130.251,193.427 129.5,194.5C 126.394,191.109 122.728,188.442 118.5,186.5C 117.264,187.246 115.93,187.579 114.5,187.5C 115.476,186.185 116.476,184.852 117.5,183.5C 117.137,182.817 116.804,182.15 116.5,181.5 Z"/></g>
<g><path style="opacity:1" fill="#e9d84e" d="M 130.5,198.5 C 130.5,200.833 130.5,203.167 130.5,205.5C 126.973,208.204 124.14,211.538 122,215.5C 121.238,211.413 121.404,207.413 122.5,203.5C 123.167,203.5 123.5,203.167 123.5,202.5C 125.179,202.715 126.179,202.048 126.5,200.5C 127.605,199.4 128.938,198.733 130.5,198.5 Z"/></g>
<g><path style="opacity:1" fill="#736b30" d="M 126.5,200.5 C 126.179,202.048 125.179,202.715 123.5,202.5C 124.29,201.599 125.29,200.932 126.5,200.5 Z"/></g>
<g><path style="opacity:1" fill="#e0d9db" d="M 151.5,197.5 C 147.729,202.043 144.729,207.043 142.5,212.5C 139.104,211.802 135.771,211.802 132.5,212.5C 132.713,209.527 132.379,206.527 131.5,203.5C 133.433,205.937 135.6,208.271 138,210.5C 138.303,207.001 139.136,203.668 140.5,200.5C 141.609,200.557 142.609,200.89 143.5,201.5C 144.251,202.573 145.251,202.74 146.5,202C 148.037,200.293 149.704,198.793 151.5,197.5 Z"/></g>
<g><path style="opacity:1" fill="#998b1e" d="M 122.5,203.5 C 121.404,207.413 121.238,211.413 122,215.5C 124.14,211.538 126.973,208.204 130.5,205.5C 129.18,208.826 127.847,212.16 126.5,215.5C 126.737,216.791 126.404,217.791 125.5,218.5C 124.839,219.718 124.172,221.051 123.5,222.5C 121.799,221.446 120.132,220.446 118.5,219.5C 117.239,214.175 117.239,208.842 118.5,203.5C 119.833,203.5 121.167,203.5 122.5,203.5 Z"/></g>
<g><path style="opacity:1" fill="#716a49" d="M 123.5,202.5 C 123.5,203.167 123.167,203.5 122.5,203.5C 121.167,203.5 119.833,203.5 118.5,203.5C 117.239,208.842 117.239,214.175 118.5,219.5C 116.108,215.14 115.441,210.473 116.5,205.5C 117.404,204.791 117.737,203.791 117.5,202.5C 119.5,202.5 121.5,202.5 123.5,202.5 Z"/></g>
<g><path style="opacity:1" fill="#827e78" d="M 130.5,198.5 C 131.928,200.074 132.261,201.741 131.5,203.5C 132.379,206.527 132.713,209.527 132.5,212.5C 135.771,211.802 139.104,211.802 142.5,212.5C 142.134,213.695 141.301,214.361 140,214.5C 138.441,213.971 136.941,213.304 135.5,212.5C 133.287,215.08 131.12,215.08 129,212.5C 128.148,213.571 127.315,214.571 126.5,215.5C 127.847,212.16 129.18,208.826 130.5,205.5C 130.5,203.167 130.5,200.833 130.5,198.5 Z"/></g>
<g><path style="opacity:1" fill="#948f7d" d="M 125.5,218.5 C 125.5,221.167 125.5,223.833 125.5,226.5C 125.167,226.5 124.833,226.5 124.5,226.5C 121.974,224.582 119.974,222.249 118.5,219.5C 120.132,220.446 121.799,221.446 123.5,222.5C 124.172,221.051 124.839,219.718 125.5,218.5 Z"/></g>
</svg>
